<svg viewBox="0 0 260 50" xmlns="http://www.w3.org/2000/svg">
  <defs>
    <linearGradient id="half-fill" x1="0" y1="0" x2="1" y2="0">
      <stop offset="50%" stop-color="#FFA500"/>
      <stop offset="50%" stop-color="white"/>
    </linearGradient>
  </defs>
  
  <g stroke="#FFA500" stroke-width="1">
    <polygon points="10,25 17,20 24,25 22,16 29,10 20,10 17,2 14,10 5,10 12,16" fill="#FFA500"/>
    <polygon points="52,25 59,20 66,25 64,16 71,10 62,10 59,2 56,10 47,10 54,16" fill="#FFA500"/>
    <polygon points="94,25 101,20 108,25 106,16 113,10 104,10 101,2 98,10 89,10 96,16" fill="#FFA500"/>
    <polygon points="136,25 143,20 150,25 148,16 155,10 146,10 143,2 140,10 131,10 138,16" fill="#FFA500"/>
    <polygon points="178,25 185,20 192,25 190,16 197,10 188,10 185,2 182,10 173,10 180,16" fill="url(#half-fill)"/>
  </g>
</svg>
